<svg id="Icons" enable-background="new 0 0 512 512" height="512" viewBox="0 0 512 512" width="512" xmlns="http://www.w3.org/2000/svg"><path d="m512 256c0 141.38-114.62 256-256 256-128.46 0-234.84-94.64-253.19-218-1.874-12.58-2.813-25.281-2.81-38 0-141.38 114.62-256 256-256 136.45 0 248 106.76 255.58 241.3.28 4.86.42 9.77.42 14.7z" fill="#8d00af"/><path d="m512 256c0 141.38-114.62 256-256 256-128.46 0-234.84-94.64-253.19-218 1.51-.54 3-1.15 4.49-1.81 9.93-4.45 18.6-11.41 28.69-15.47 13.742-5.448 29.085-5.222 42.66.63 12.94 5.65 24.19 16.43 38.35 17.25 11.66.68 22.71-5.84 30.87-14.19s14.13-18.54 21.13-27.81c9.77-12.78 22.07-24.11 37-30s32.87-5.77 46.41 2.92c12.62 8.11 19.87 22.15 29.59 33.56 13.82 16.23 35.65 27.79 56.36 22.66 16.74-4.15 31.1-18.54 48.27-16.89s28.53 18.62 43.83 26.83c20.13 10.8 48 3.63 60.43-15.53 7.22-11.18 11.41-26.86 20.61-34.83.36 4.84.5 9.75.5 14.68z" fill="#aa0dd1"/><path d="m382.6 146.08v277.56c.008 6.87-5.555 12.447-12.425 12.455-3.064.004-6.021-1.123-8.305-3.165l-97.59-87.06c-4.716-4.212-11.844-4.212-16.56 0l-97.59 87.06c-5.123 4.578-12.987 4.137-17.565-.985-2.042-2.284-3.168-5.241-3.165-8.305v-277.56z" fill="#f9c744"/><path d="m359.57 146.08v232.16c0 9-10.4 13.75-17 7.76l-79.83-72.82c-3.83-3.533-9.73-3.533-13.56 0l-79.79 72.82c-6.56 6-17 1.23-17-7.76v-232.16z" fill="#fa4654"/><path d="m152.43 186.52h207.14v40.43h-207.14z" fill="#ff8b00"/><path d="m152.39 226.95h207.18v40.43h-207.18z" fill="#f9c744"/><path d="m152.43 267.38h207.14v40.43h-207.14z" fill="#15be79"/><path d="m359.57 307.81v40.43h-58.35l-38.44-35.06c-3.83-3.533-9.73-3.533-13.56 0l-38.44 35.06h-58.35v-40.43z" fill="#0391e8"/><path d="m210.78 348.24-41.39 37.76c-1.822 1.707-4.223 2.661-6.72 2.67-5.683-.027-10.268-4.656-10.241-10.339 0-.03 0-.061.001-.091v-30z" fill="#aa0dd1"/><path d="m359.57 348.24v30c.077 5.682-4.466 10.352-10.149 10.429-.03 0-.061.001-.091.001-2.497-.009-4.898-.963-6.72-2.67l-41.39-37.76z" fill="#aa0dd1"/><path d="m350.9 186.52c-2-12.54-5.61-21-9.8-21s-7.84 8.43-9.8 21z" fill="#fb626e"/><path d="m329.77 207.63c-.035 6.477.376 12.949 1.23 19.37h20.12c.865-6.403 1.29-12.859 1.27-19.32.029-7.065-.483-14.123-1.53-21.11h-19.56c-1.045 6.971-1.556 14.011-1.53 21.06z" fill="#ffac52"/><path d="m331 227c1.88 13.51 5.68 22.76 10.06 22.76s8.18-9.25 10.06-22.76z" fill="#fbd9a3"/><path d="m347.78 267.38c-1.62-7-4-11.38-6.68-11.38s-5.06 4.41-6.68 11.38z" fill="#fbd9a3"/><path d="m332.28 288.75c-.04 6.391.513 12.771 1.65 19.06h14.34c1.142-6.288 1.695-12.669 1.65-19.06.072-7.184-.645-14.353-2.14-21.38h-13.36c-1.495 7.027-2.212 14.196-2.14 21.38z" fill="#33db92"/><path d="m333.93 307.81c1.6 8.29 4.22 13.69 7.17 13.69s5.57-5.4 7.17-13.69z" fill="#22aef4"/><path d="m301.85 207.06c-10.748-10.77-28.192-10.787-38.962-.038-.013.013-.026.026-.038.038l-6.85 6.94-6.89-6.89c-10.77-10.77-28.23-10.77-39 0s-10.77 28.23 0 39l6.89 6.89 33.6 33.6c2.96 2.96 7.759 2.96 10.72 0l40.53-40.6c10.745-10.756 10.745-28.184 0-38.94z" fill="#fff"/><path d="m111.73 112.17h288.55v33.91h-288.55z" fill="#decee5"/><path d="m111.73 133.34h288.55v12.74h-288.55z" fill="#c2aacf"/><ellipse cx="269.15" cy="121.18" fill="#f4e6f4" rx="34.74" ry="7.95"/><ellipse cx="333.41" cy="121.18" fill="#f4e6f4" rx="23.53" ry="5.38"/><path d="m418 101.42v55.41c0 6.169-5.001 11.17-11.17 11.17-.017 0-.033 0-.05 0h-13c-6.169 0-11.17-5.001-11.17-11.17 0-.003 0-.007 0-.01v-55.4c0-6.169 5.001-11.17 11.17-11.17h13c6.169-.028 11.192 4.951 11.22 11.12z" fill="#f39e22"/><path d="m393.77 90.25h13.01c6.169 0 11.17 5.001 11.17 11.17v33.49c0 6.169-5.001 11.17-11.17 11.17h-13.01c-6.169 0-11.17-5.001-11.17-11.17v-33.49c0-6.169 5.001-11.17 11.17-11.17z" fill="#f9c744"/><ellipse cx="409.45" cy="106.53" fill="#fad98f" rx="5.5" ry="12.77"/><ellipse cx="409.45" cy="130.03" fill="#fad98f" rx="3.81" ry="8.85"/><path d="m129.4 101.42v55.41c0 6.169-5.001 11.17-11.17 11.17h-13c-6.169 0-11.17-5.001-11.17-11.17 0-.003 0-.007 0-.01v-55.4c0-6.169 5.001-11.17 11.17-11.17h13c6.169 0 11.17 5.001 11.17 11.17z" fill="#f39e22"/><path d="m105.22 90.25h13.01c6.169 0 11.17 5.001 11.17 11.17v33.49c0 6.169-5.001 11.17-11.17 11.17h-13.01c-6.169 0-11.17-5.001-11.17-11.17v-33.49c0-6.169 5.001-11.17 11.17-11.17z" fill="#f9c744"/><g fill="#fad98f"><ellipse cx="120.9" cy="106.53" rx="5.5" ry="12.77"/><ellipse cx="120.9" cy="130.03" rx="3.81" ry="8.85"/></g></svg>